<mxfile host="app.diagrams.net" modified="2023-11-24T09:36:20.224Z" agent="Mozilla/5.0 (Windows NT 10.0; Win64; x64) AppleWebKit/537.36 (KHTML, like Gecko) Chrome/116.0.0.0 Safari/537.36" etag="95vOXm_3s9RHp4KpM5p0" version="22.1.3" type="github">
  <diagram name="Page-1" id="-N0Wf2p26_ytfd32TYqR">
    <mxGraphModel dx="2556" dy="630" grid="1" gridSize="10" guides="1" tooltips="1" connect="1" arrows="1" fold="1" page="1" pageScale="1" pageWidth="827" pageHeight="1169" math="0" shadow="0">
      <root>
        <mxCell id="0" />
        <mxCell id="1" parent="0" />
        <mxCell id="k39MhWjwB1qhPyTOTygt-1" value="SWF_DB_REFERENTIEL.SWF_SCH_REFERENTIEL.SWF_TAB_PERSONNE" style="shape=table;startSize=30;container=1;collapsible=1;childLayout=tableLayout;fixedRows=1;rowLines=0;fontStyle=1;align=center;resizeLast=1;html=1;" vertex="1" parent="1">
          <mxGeometry x="-340" y="40" width="370" height="510" as="geometry">
            <mxRectangle x="-380" y="20" width="400" height="30" as="alternateBounds" />
          </mxGeometry>
        </mxCell>
        <mxCell id="k39MhWjwB1qhPyTOTygt-2" value="" style="shape=tableRow;horizontal=0;startSize=0;swimlaneHead=0;swimlaneBody=0;fillColor=none;collapsible=0;dropTarget=0;points=[[0,0.5],[1,0.5]];portConstraint=eastwest;top=0;left=0;right=0;bottom=1;" vertex="1" parent="k39MhWjwB1qhPyTOTygt-1">
          <mxGeometry y="30" width="370" height="30" as="geometry" />
        </mxCell>
        <mxCell id="k39MhWjwB1qhPyTOTygt-3" value="PK" style="shape=partialRectangle;connectable=0;fillColor=none;top=0;left=0;bottom=0;right=0;fontStyle=1;overflow=hidden;whiteSpace=wrap;html=1;" vertex="1" parent="k39MhWjwB1qhPyTOTygt-2">
          <mxGeometry width="30" height="30" as="geometry">
            <mxRectangle width="30" height="30" as="alternateBounds" />
          </mxGeometry>
        </mxCell>
        <mxCell id="k39MhWjwB1qhPyTOTygt-4" value="ID" style="shape=partialRectangle;connectable=0;fillColor=none;top=0;left=0;bottom=0;right=0;align=left;spacingLeft=6;fontStyle=5;overflow=hidden;whiteSpace=wrap;html=1;" vertex="1" parent="k39MhWjwB1qhPyTOTygt-2">
          <mxGeometry x="30" width="340" height="30" as="geometry">
            <mxRectangle width="340" height="30" as="alternateBounds" />
          </mxGeometry>
        </mxCell>
        <mxCell id="k39MhWjwB1qhPyTOTygt-5" value="" style="shape=tableRow;horizontal=0;startSize=0;swimlaneHead=0;swimlaneBody=0;fillColor=none;collapsible=0;dropTarget=0;points=[[0,0.5],[1,0.5]];portConstraint=eastwest;top=0;left=0;right=0;bottom=0;" vertex="1" parent="k39MhWjwB1qhPyTOTygt-1">
          <mxGeometry y="60" width="370" height="30" as="geometry" />
        </mxCell>
        <mxCell id="k39MhWjwB1qhPyTOTygt-6" value="" style="shape=partialRectangle;connectable=0;fillColor=none;top=0;left=0;bottom=0;right=0;editable=1;overflow=hidden;whiteSpace=wrap;html=1;" vertex="1" parent="k39MhWjwB1qhPyTOTygt-5">
          <mxGeometry width="30" height="30" as="geometry">
            <mxRectangle width="30" height="30" as="alternateBounds" />
          </mxGeometry>
        </mxCell>
        <mxCell id="k39MhWjwB1qhPyTOTygt-7" value="L1_NOM_ENTREPRISE_CONTRAT_COLL" style="shape=partialRectangle;connectable=0;fillColor=none;top=0;left=0;bottom=0;right=0;align=left;spacingLeft=6;overflow=hidden;whiteSpace=wrap;html=1;" vertex="1" parent="k39MhWjwB1qhPyTOTygt-5">
          <mxGeometry x="30" width="340" height="30" as="geometry">
            <mxRectangle width="340" height="30" as="alternateBounds" />
          </mxGeometry>
        </mxCell>
        <mxCell id="k39MhWjwB1qhPyTOTygt-8" value="" style="shape=tableRow;horizontal=0;startSize=0;swimlaneHead=0;swimlaneBody=0;fillColor=none;collapsible=0;dropTarget=0;points=[[0,0.5],[1,0.5]];portConstraint=eastwest;top=0;left=0;right=0;bottom=0;" vertex="1" parent="k39MhWjwB1qhPyTOTygt-1">
          <mxGeometry y="90" width="370" height="30" as="geometry" />
        </mxCell>
        <mxCell id="k39MhWjwB1qhPyTOTygt-9" value="" style="shape=partialRectangle;connectable=0;fillColor=none;top=0;left=0;bottom=0;right=0;editable=1;overflow=hidden;whiteSpace=wrap;html=1;" vertex="1" parent="k39MhWjwB1qhPyTOTygt-8">
          <mxGeometry width="30" height="30" as="geometry">
            <mxRectangle width="30" height="30" as="alternateBounds" />
          </mxGeometry>
        </mxCell>
        <mxCell id="k39MhWjwB1qhPyTOTygt-10" value="&lt;table style=&quot;border-collapse:&lt;br/&gt; collapse;width:193pt&quot; width=&quot;257&quot; cellspacing=&quot;0&quot; cellpadding=&quot;0&quot; border=&quot;0&quot;&gt;&lt;tbody&gt;&lt;tr style=&quot;height:14.5pt&quot; height=&quot;19&quot;&gt;  &lt;td style=&quot;height:14.5pt;width:193pt&quot; width=&quot;257&quot; class=&quot;xl63&quot; height=&quot;19&quot;&gt;L1_ANNULATION__C&lt;/td&gt;&lt;/tr&gt;&lt;/tbody&gt;&lt;/table&gt;" style="shape=partialRectangle;connectable=0;fillColor=none;top=0;left=0;bottom=0;right=0;align=left;spacingLeft=6;overflow=hidden;whiteSpace=wrap;html=1;" vertex="1" parent="k39MhWjwB1qhPyTOTygt-8">
          <mxGeometry x="30" width="340" height="30" as="geometry">
            <mxRectangle width="340" height="30" as="alternateBounds" />
          </mxGeometry>
        </mxCell>
        <mxCell id="k39MhWjwB1qhPyTOTygt-11" value="" style="shape=tableRow;horizontal=0;startSize=0;swimlaneHead=0;swimlaneBody=0;fillColor=none;collapsible=0;dropTarget=0;points=[[0,0.5],[1,0.5]];portConstraint=eastwest;top=0;left=0;right=0;bottom=0;" vertex="1" parent="k39MhWjwB1qhPyTOTygt-1">
          <mxGeometry y="120" width="370" height="30" as="geometry" />
        </mxCell>
        <mxCell id="k39MhWjwB1qhPyTOTygt-12" value="" style="shape=partialRectangle;connectable=0;fillColor=none;top=0;left=0;bottom=0;right=0;editable=1;overflow=hidden;whiteSpace=wrap;html=1;" vertex="1" parent="k39MhWjwB1qhPyTOTygt-11">
          <mxGeometry width="30" height="30" as="geometry">
            <mxRectangle width="30" height="30" as="alternateBounds" />
          </mxGeometry>
        </mxCell>
        <mxCell id="k39MhWjwB1qhPyTOTygt-13" value="L1_TYPE_DE_CONTRAT__C" style="shape=partialRectangle;connectable=0;fillColor=none;top=0;left=0;bottom=0;right=0;align=left;spacingLeft=6;overflow=hidden;whiteSpace=wrap;html=1;" vertex="1" parent="k39MhWjwB1qhPyTOTygt-11">
          <mxGeometry x="30" width="340" height="30" as="geometry">
            <mxRectangle width="340" height="30" as="alternateBounds" />
          </mxGeometry>
        </mxCell>
        <mxCell id="k39MhWjwB1qhPyTOTygt-14" value="" style="shape=tableRow;horizontal=0;startSize=0;swimlaneHead=0;swimlaneBody=0;fillColor=none;collapsible=0;dropTarget=0;points=[[0,0.5],[1,0.5]];portConstraint=eastwest;top=0;left=0;right=0;bottom=0;" vertex="1" parent="k39MhWjwB1qhPyTOTygt-1">
          <mxGeometry y="150" width="370" height="30" as="geometry" />
        </mxCell>
        <mxCell id="k39MhWjwB1qhPyTOTygt-15" value="" style="shape=partialRectangle;connectable=0;fillColor=none;top=0;left=0;bottom=0;right=0;editable=1;overflow=hidden;whiteSpace=wrap;html=1;" vertex="1" parent="k39MhWjwB1qhPyTOTygt-14">
          <mxGeometry width="30" height="30" as="geometry">
            <mxRectangle width="30" height="30" as="alternateBounds" />
          </mxGeometry>
        </mxCell>
        <mxCell id="k39MhWjwB1qhPyTOTygt-16" value="&lt;font color=&quot;#ff3333&quot;&gt;&lt;b&gt;L1_ENTITE_RATTACHEMENT__C&lt;/b&gt;&lt;/font&gt;" style="shape=partialRectangle;connectable=0;fillColor=none;top=0;left=0;bottom=0;right=0;align=left;spacingLeft=6;overflow=hidden;whiteSpace=wrap;html=1;" vertex="1" parent="k39MhWjwB1qhPyTOTygt-14">
          <mxGeometry x="30" width="340" height="30" as="geometry">
            <mxRectangle width="340" height="30" as="alternateBounds" />
          </mxGeometry>
        </mxCell>
        <mxCell id="k39MhWjwB1qhPyTOTygt-17" value="" style="shape=tableRow;horizontal=0;startSize=0;swimlaneHead=0;swimlaneBody=0;fillColor=none;collapsible=0;dropTarget=0;points=[[0,0.5],[1,0.5]];portConstraint=eastwest;top=0;left=0;right=0;bottom=0;" vertex="1" parent="k39MhWjwB1qhPyTOTygt-1">
          <mxGeometry y="180" width="370" height="30" as="geometry" />
        </mxCell>
        <mxCell id="k39MhWjwB1qhPyTOTygt-18" value="" style="shape=partialRectangle;connectable=0;fillColor=none;top=0;left=0;bottom=0;right=0;editable=1;overflow=hidden;whiteSpace=wrap;html=1;" vertex="1" parent="k39MhWjwB1qhPyTOTygt-17">
          <mxGeometry width="30" height="30" as="geometry">
            <mxRectangle width="30" height="30" as="alternateBounds" />
          </mxGeometry>
        </mxCell>
        <mxCell id="k39MhWjwB1qhPyTOTygt-19" value="ID_SFDC__C" style="shape=partialRectangle;connectable=0;fillColor=none;top=0;left=0;bottom=0;right=0;align=left;spacingLeft=6;overflow=hidden;whiteSpace=wrap;html=1;" vertex="1" parent="k39MhWjwB1qhPyTOTygt-17">
          <mxGeometry x="30" width="340" height="30" as="geometry">
            <mxRectangle width="340" height="30" as="alternateBounds" />
          </mxGeometry>
        </mxCell>
        <mxCell id="k39MhWjwB1qhPyTOTygt-20" value="" style="shape=tableRow;horizontal=0;startSize=0;swimlaneHead=0;swimlaneBody=0;fillColor=none;collapsible=0;dropTarget=0;points=[[0,0.5],[1,0.5]];portConstraint=eastwest;top=0;left=0;right=0;bottom=0;" vertex="1" parent="k39MhWjwB1qhPyTOTygt-1">
          <mxGeometry y="210" width="370" height="30" as="geometry" />
        </mxCell>
        <mxCell id="k39MhWjwB1qhPyTOTygt-21" value="&#xa;&#xa;&lt;table style=&quot;border-collapse:&#xa; collapse;width:193pt&quot; width=&quot;257&quot; cellspacing=&quot;0&quot; cellpadding=&quot;0&quot; border=&quot;0&quot;&gt;&#xa;&#xa; &lt;colgroup&gt;&lt;col style=&quot;mso-width-source:userset;mso-width-alt:8960;width:193pt&quot; width=&quot;257&quot;&gt;&#xa; &lt;/colgroup&gt;&lt;tbody&gt;&lt;tr style=&quot;height:14.5pt&quot; height=&quot;19&quot;&gt;&#xa;  &lt;td style=&quot;height:14.5pt;width:193pt&quot; width=&quot;257&quot; class=&quot;xl65&quot; height=&quot;19&quot;&gt;L1_RESEAU__C&lt;/td&gt;&#xa; &lt;/tr&gt;&#xa; &lt;tr style=&quot;height:14.5pt&quot; height=&quot;19&quot;&gt;&#xa;  &lt;td style=&quot;height:14.5pt;border-top:none&quot; class=&quot;xl65&quot; height=&quot;19&quot;&gt;L1_OFFRE__C&lt;/td&gt;&#xa; &lt;/tr&gt;&#xa; &lt;tr style=&quot;height:14.5pt&quot; height=&quot;19&quot;&gt;&#xa;  &lt;td style=&quot;height:14.5pt;border-top:none&quot; class=&quot;xl65&quot; height=&quot;19&quot;&gt;CONTRAT_COLLECTIF__C&lt;/td&gt;&#xa; &lt;/tr&gt;&#xa;&#xa;&lt;/tbody&gt;&lt;/table&gt;&#xa;&#xa;&#xa;&#xa;&#xa;" style="shape=partialRectangle;connectable=0;fillColor=none;top=0;left=0;bottom=0;right=0;editable=1;overflow=hidden;whiteSpace=wrap;html=1;" vertex="1" parent="k39MhWjwB1qhPyTOTygt-20">
          <mxGeometry width="30" height="30" as="geometry">
            <mxRectangle width="30" height="30" as="alternateBounds" />
          </mxGeometry>
        </mxCell>
        <mxCell id="k39MhWjwB1qhPyTOTygt-22" value="&lt;table style=&quot;border-collapse:&lt;br/&gt; collapse;width:193pt&quot; width=&quot;257&quot; cellspacing=&quot;0&quot; cellpadding=&quot;0&quot; border=&quot;0&quot;&gt;&lt;tbody&gt;&lt;tr style=&quot;height:14.5pt&quot; height=&quot;19&quot;&gt;  &lt;td style=&quot;height:14.5pt;width:193pt&quot; width=&quot;257&quot; class=&quot;xl65&quot; height=&quot;19&quot;&gt;L1_RESEAU__C&lt;/td&gt;&lt;/tr&gt;&lt;/tbody&gt;&lt;/table&gt;" style="shape=partialRectangle;connectable=0;fillColor=none;top=0;left=0;bottom=0;right=0;align=left;spacingLeft=6;overflow=hidden;whiteSpace=wrap;html=1;" vertex="1" parent="k39MhWjwB1qhPyTOTygt-20">
          <mxGeometry x="30" width="340" height="30" as="geometry">
            <mxRectangle width="340" height="30" as="alternateBounds" />
          </mxGeometry>
        </mxCell>
        <mxCell id="k39MhWjwB1qhPyTOTygt-23" value="" style="shape=tableRow;horizontal=0;startSize=0;swimlaneHead=0;swimlaneBody=0;fillColor=none;collapsible=0;dropTarget=0;points=[[0,0.5],[1,0.5]];portConstraint=eastwest;top=0;left=0;right=0;bottom=0;" vertex="1" parent="k39MhWjwB1qhPyTOTygt-1">
          <mxGeometry y="240" width="370" height="30" as="geometry" />
        </mxCell>
        <mxCell id="k39MhWjwB1qhPyTOTygt-24" value="" style="shape=partialRectangle;connectable=0;fillColor=none;top=0;left=0;bottom=0;right=0;editable=1;overflow=hidden;whiteSpace=wrap;html=1;" vertex="1" parent="k39MhWjwB1qhPyTOTygt-23">
          <mxGeometry width="30" height="30" as="geometry">
            <mxRectangle width="30" height="30" as="alternateBounds" />
          </mxGeometry>
        </mxCell>
        <mxCell id="k39MhWjwB1qhPyTOTygt-25" value="L1_OFFRE__C" style="shape=partialRectangle;connectable=0;fillColor=none;top=0;left=0;bottom=0;right=0;align=left;spacingLeft=6;overflow=hidden;whiteSpace=wrap;html=1;" vertex="1" parent="k39MhWjwB1qhPyTOTygt-23">
          <mxGeometry x="30" width="340" height="30" as="geometry">
            <mxRectangle width="340" height="30" as="alternateBounds" />
          </mxGeometry>
        </mxCell>
        <mxCell id="k39MhWjwB1qhPyTOTygt-26" value="" style="shape=tableRow;horizontal=0;startSize=0;swimlaneHead=0;swimlaneBody=0;fillColor=none;collapsible=0;dropTarget=0;points=[[0,0.5],[1,0.5]];portConstraint=eastwest;top=0;left=0;right=0;bottom=0;" vertex="1" parent="k39MhWjwB1qhPyTOTygt-1">
          <mxGeometry y="270" width="370" height="30" as="geometry" />
        </mxCell>
        <mxCell id="k39MhWjwB1qhPyTOTygt-27" value="" style="shape=partialRectangle;connectable=0;fillColor=none;top=0;left=0;bottom=0;right=0;editable=1;overflow=hidden;whiteSpace=wrap;html=1;" vertex="1" parent="k39MhWjwB1qhPyTOTygt-26">
          <mxGeometry width="30" height="30" as="geometry">
            <mxRectangle width="30" height="30" as="alternateBounds" />
          </mxGeometry>
        </mxCell>
        <mxCell id="k39MhWjwB1qhPyTOTygt-28" value="CONTRAT_COLLECTIF__C" style="shape=partialRectangle;connectable=0;fillColor=none;top=0;left=0;bottom=0;right=0;align=left;spacingLeft=6;overflow=hidden;whiteSpace=wrap;html=1;" vertex="1" parent="k39MhWjwB1qhPyTOTygt-26">
          <mxGeometry x="30" width="340" height="30" as="geometry">
            <mxRectangle width="340" height="30" as="alternateBounds" />
          </mxGeometry>
        </mxCell>
        <mxCell id="k39MhWjwB1qhPyTOTygt-29" value="" style="shape=tableRow;horizontal=0;startSize=0;swimlaneHead=0;swimlaneBody=0;fillColor=none;collapsible=0;dropTarget=0;points=[[0,0.5],[1,0.5]];portConstraint=eastwest;top=0;left=0;right=0;bottom=0;" vertex="1" parent="k39MhWjwB1qhPyTOTygt-1">
          <mxGeometry y="300" width="370" height="30" as="geometry" />
        </mxCell>
        <mxCell id="k39MhWjwB1qhPyTOTygt-30" value="" style="shape=partialRectangle;connectable=0;fillColor=none;top=0;left=0;bottom=0;right=0;editable=1;overflow=hidden;whiteSpace=wrap;html=1;" vertex="1" parent="k39MhWjwB1qhPyTOTygt-29">
          <mxGeometry width="30" height="30" as="geometry">
            <mxRectangle width="30" height="30" as="alternateBounds" />
          </mxGeometry>
        </mxCell>
        <mxCell id="k39MhWjwB1qhPyTOTygt-31" value="LIBELLE_TYPE_DE_CONTRAT__C" style="shape=partialRectangle;connectable=0;fillColor=none;top=0;left=0;bottom=0;right=0;align=left;spacingLeft=6;overflow=hidden;whiteSpace=wrap;html=1;" vertex="1" parent="k39MhWjwB1qhPyTOTygt-29">
          <mxGeometry x="30" width="340" height="30" as="geometry">
            <mxRectangle width="340" height="30" as="alternateBounds" />
          </mxGeometry>
        </mxCell>
        <mxCell id="k39MhWjwB1qhPyTOTygt-32" value="" style="shape=tableRow;horizontal=0;startSize=0;swimlaneHead=0;swimlaneBody=0;fillColor=none;collapsible=0;dropTarget=0;points=[[0,0.5],[1,0.5]];portConstraint=eastwest;top=0;left=0;right=0;bottom=0;" vertex="1" parent="k39MhWjwB1qhPyTOTygt-1">
          <mxGeometry y="330" width="370" height="30" as="geometry" />
        </mxCell>
        <mxCell id="k39MhWjwB1qhPyTOTygt-33" value="" style="shape=partialRectangle;connectable=0;fillColor=none;top=0;left=0;bottom=0;right=0;editable=1;overflow=hidden;whiteSpace=wrap;html=1;" vertex="1" parent="k39MhWjwB1qhPyTOTygt-32">
          <mxGeometry width="30" height="30" as="geometry">
            <mxRectangle width="30" height="30" as="alternateBounds" />
          </mxGeometry>
        </mxCell>
        <mxCell id="k39MhWjwB1qhPyTOTygt-34" value="RISQUE__C" style="shape=partialRectangle;connectable=0;fillColor=none;top=0;left=0;bottom=0;right=0;align=left;spacingLeft=6;overflow=hidden;whiteSpace=wrap;html=1;" vertex="1" parent="k39MhWjwB1qhPyTOTygt-32">
          <mxGeometry x="30" width="340" height="30" as="geometry">
            <mxRectangle width="340" height="30" as="alternateBounds" />
          </mxGeometry>
        </mxCell>
        <mxCell id="k39MhWjwB1qhPyTOTygt-35" value="" style="shape=tableRow;horizontal=0;startSize=0;swimlaneHead=0;swimlaneBody=0;fillColor=none;collapsible=0;dropTarget=0;points=[[0,0.5],[1,0.5]];portConstraint=eastwest;top=0;left=0;right=0;bottom=0;" vertex="1" parent="k39MhWjwB1qhPyTOTygt-1">
          <mxGeometry y="360" width="370" height="30" as="geometry" />
        </mxCell>
        <mxCell id="k39MhWjwB1qhPyTOTygt-36" value="" style="shape=partialRectangle;connectable=0;fillColor=none;top=0;left=0;bottom=0;right=0;editable=1;overflow=hidden;whiteSpace=wrap;html=1;" vertex="1" parent="k39MhWjwB1qhPyTOTygt-35">
          <mxGeometry width="30" height="30" as="geometry">
            <mxRectangle width="30" height="30" as="alternateBounds" />
          </mxGeometry>
        </mxCell>
        <mxCell id="k39MhWjwB1qhPyTOTygt-37" value="STATUT__C" style="shape=partialRectangle;connectable=0;fillColor=none;top=0;left=0;bottom=0;right=0;align=left;spacingLeft=6;overflow=hidden;whiteSpace=wrap;html=1;" vertex="1" parent="k39MhWjwB1qhPyTOTygt-35">
          <mxGeometry x="30" width="340" height="30" as="geometry">
            <mxRectangle width="340" height="30" as="alternateBounds" />
          </mxGeometry>
        </mxCell>
        <mxCell id="k39MhWjwB1qhPyTOTygt-38" value="" style="shape=tableRow;horizontal=0;startSize=0;swimlaneHead=0;swimlaneBody=0;fillColor=none;collapsible=0;dropTarget=0;points=[[0,0.5],[1,0.5]];portConstraint=eastwest;top=0;left=0;right=0;bottom=0;" vertex="1" parent="k39MhWjwB1qhPyTOTygt-1">
          <mxGeometry y="390" width="370" height="30" as="geometry" />
        </mxCell>
        <mxCell id="k39MhWjwB1qhPyTOTygt-39" value="" style="shape=partialRectangle;connectable=0;fillColor=none;top=0;left=0;bottom=0;right=0;editable=1;overflow=hidden;whiteSpace=wrap;html=1;" vertex="1" parent="k39MhWjwB1qhPyTOTygt-38">
          <mxGeometry width="30" height="30" as="geometry">
            <mxRectangle width="30" height="30" as="alternateBounds" />
          </mxGeometry>
        </mxCell>
        <mxCell id="k39MhWjwB1qhPyTOTygt-40" value="NUMDAC__C" style="shape=partialRectangle;connectable=0;fillColor=none;top=0;left=0;bottom=0;right=0;align=left;spacingLeft=6;overflow=hidden;whiteSpace=wrap;html=1;" vertex="1" parent="k39MhWjwB1qhPyTOTygt-38">
          <mxGeometry x="30" width="340" height="30" as="geometry">
            <mxRectangle width="340" height="30" as="alternateBounds" />
          </mxGeometry>
        </mxCell>
        <mxCell id="k39MhWjwB1qhPyTOTygt-41" value="" style="shape=tableRow;horizontal=0;startSize=0;swimlaneHead=0;swimlaneBody=0;fillColor=none;collapsible=0;dropTarget=0;points=[[0,0.5],[1,0.5]];portConstraint=eastwest;top=0;left=0;right=0;bottom=0;" vertex="1" parent="k39MhWjwB1qhPyTOTygt-1">
          <mxGeometry y="420" width="370" height="30" as="geometry" />
        </mxCell>
        <mxCell id="k39MhWjwB1qhPyTOTygt-42" value="" style="shape=partialRectangle;connectable=0;fillColor=none;top=0;left=0;bottom=0;right=0;editable=1;overflow=hidden;whiteSpace=wrap;html=1;" vertex="1" parent="k39MhWjwB1qhPyTOTygt-41">
          <mxGeometry width="30" height="30" as="geometry">
            <mxRectangle width="30" height="30" as="alternateBounds" />
          </mxGeometry>
        </mxCell>
        <mxCell id="k39MhWjwB1qhPyTOTygt-43" value="FAMILLE_DE_PRODUIT_EOLE__C" style="shape=partialRectangle;connectable=0;fillColor=none;top=0;left=0;bottom=0;right=0;align=left;spacingLeft=6;overflow=hidden;whiteSpace=wrap;html=1;" vertex="1" parent="k39MhWjwB1qhPyTOTygt-41">
          <mxGeometry x="30" width="340" height="30" as="geometry">
            <mxRectangle width="340" height="30" as="alternateBounds" />
          </mxGeometry>
        </mxCell>
        <mxCell id="k39MhWjwB1qhPyTOTygt-44" value="" style="shape=tableRow;horizontal=0;startSize=0;swimlaneHead=0;swimlaneBody=0;fillColor=none;collapsible=0;dropTarget=0;points=[[0,0.5],[1,0.5]];portConstraint=eastwest;top=0;left=0;right=0;bottom=0;" vertex="1" parent="k39MhWjwB1qhPyTOTygt-1">
          <mxGeometry y="450" width="370" height="30" as="geometry" />
        </mxCell>
        <mxCell id="k39MhWjwB1qhPyTOTygt-45" value="" style="shape=partialRectangle;connectable=0;fillColor=none;top=0;left=0;bottom=0;right=0;editable=1;overflow=hidden;whiteSpace=wrap;html=1;" vertex="1" parent="k39MhWjwB1qhPyTOTygt-44">
          <mxGeometry width="30" height="30" as="geometry">
            <mxRectangle width="30" height="30" as="alternateBounds" />
          </mxGeometry>
        </mxCell>
        <mxCell id="k39MhWjwB1qhPyTOTygt-46" value="PRODUIT_EOLE__C" style="shape=partialRectangle;connectable=0;fillColor=none;top=0;left=0;bottom=0;right=0;align=left;spacingLeft=6;overflow=hidden;whiteSpace=wrap;html=1;" vertex="1" parent="k39MhWjwB1qhPyTOTygt-44">
          <mxGeometry x="30" width="340" height="30" as="geometry">
            <mxRectangle width="340" height="30" as="alternateBounds" />
          </mxGeometry>
        </mxCell>
        <mxCell id="k39MhWjwB1qhPyTOTygt-47" value="" style="shape=tableRow;horizontal=0;startSize=0;swimlaneHead=0;swimlaneBody=0;fillColor=none;collapsible=0;dropTarget=0;points=[[0,0.5],[1,0.5]];portConstraint=eastwest;top=0;left=0;right=0;bottom=0;" vertex="1" parent="k39MhWjwB1qhPyTOTygt-1">
          <mxGeometry y="480" width="370" height="30" as="geometry" />
        </mxCell>
        <mxCell id="k39MhWjwB1qhPyTOTygt-48" value="" style="shape=partialRectangle;connectable=0;fillColor=none;top=0;left=0;bottom=0;right=0;editable=1;overflow=hidden;whiteSpace=wrap;html=1;" vertex="1" parent="k39MhWjwB1qhPyTOTygt-47">
          <mxGeometry width="30" height="30" as="geometry">
            <mxRectangle width="30" height="30" as="alternateBounds" />
          </mxGeometry>
        </mxCell>
        <mxCell id="k39MhWjwB1qhPyTOTygt-49" value="TYPE_CONTRAT__C" style="shape=partialRectangle;connectable=0;fillColor=none;top=0;left=0;bottom=0;right=0;align=left;spacingLeft=6;overflow=hidden;whiteSpace=wrap;html=1;" vertex="1" parent="k39MhWjwB1qhPyTOTygt-47">
          <mxGeometry x="30" width="340" height="30" as="geometry">
            <mxRectangle width="340" height="30" as="alternateBounds" />
          </mxGeometry>
        </mxCell>
      </root>
    </mxGraphModel>
  </diagram>
</mxfile>
